<svg width="33" height="32" viewBox="0 0 33 32" fill="none" xmlns="http://www.w3.org/2000/svg">
<circle cx="16.5" cy="16" r="16" fill="url(#paint0_linear_50_13994)"/>
<path fill-rule="evenodd" clip-rule="evenodd" d="M13.1037 8.66801C13.2791 8.34708 13.6156 8.14745 13.9813 8.14745H19.0191C19.3848 8.14745 19.7214 8.34708 19.8967 8.66801L20.8699 10.4493H22.8603C23.9648 10.4493 24.8603 11.3448 24.8603 12.4493V21.8525C24.8603 22.9571 23.9648 23.8525 22.8603 23.8525H10.1401C9.03557 23.8525 8.14014 22.9571 8.14014 21.8525V12.4493C8.14014 11.3448 9.03557 10.4493 10.1401 10.4493H12.1306L13.1037 8.66801ZM16.5002 20.5133C18.7004 20.5133 20.4841 18.7296 20.4841 16.5295C20.4841 14.3293 18.7004 12.5456 16.5002 12.5456C14.3 12.5456 12.5164 14.3293 12.5164 16.5295C12.5164 18.7296 14.3 20.5133 16.5002 20.5133Z" fill="white"/>
<defs>
<linearGradient id="paint0_linear_50_13994" x1="4.90547" y1="4.13501" x2="27.7798" y2="28.7128" gradientUnits="userSpaceOnUse">
<stop stop-color="#FEAC68"/>
<stop offset="1" stop-color="#F6903C"/>
</linearGradient>
</defs>
</svg>
