<svg width="81" height="25" viewBox="0 0 81 25" fill="none" xmlns="http://www.w3.org/2000/svg">
<path d="M19.01 24H14.051L5.757 11.443V24H0.798V3.642H5.757L14.051 16.257V3.642H19.01V24ZM37.8586 15.648C37.8586 16.112 37.8296 16.5953 37.7716 17.098H26.5486C26.626 18.1033 26.945 18.8767 27.5056 19.418C28.0856 19.94 28.7913 20.201 29.6226 20.201C30.86 20.201 31.7203 19.679 32.2036 18.635H37.4816C37.211 19.6983 36.718 20.6553 36.0026 21.506C35.3066 22.3567 34.427 23.0237 33.3636 23.507C32.3003 23.9903 31.1113 24.232 29.7966 24.232C28.2113 24.232 26.8 23.8937 25.5626 23.217C24.3253 22.5403 23.3586 21.5737 22.6626 20.317C21.9666 19.0603 21.6186 17.591 21.6186 15.909C21.6186 14.227 21.957 12.7577 22.6336 11.501C23.3296 10.2443 24.2963 9.27767 25.5336 8.601C26.771 7.92433 28.192 7.586 29.7966 7.586C31.3626 7.586 32.7546 7.91467 33.9726 8.572C35.1906 9.22933 36.138 10.167 36.8146 11.385C37.5106 12.603 37.8586 14.024 37.8586 15.648ZM32.7836 14.343C32.7836 13.4923 32.4936 12.8157 31.9136 12.313C31.3336 11.8103 30.6086 11.559 29.7386 11.559C28.9073 11.559 28.2016 11.8007 27.6216 12.284C27.061 12.7673 26.713 13.4537 26.5776 14.343H32.7836ZM47.8408 24.232C46.2554 24.232 44.8248 23.8937 43.5488 23.217C42.2921 22.5403 41.2964 21.5737 40.5618 20.317C39.8464 19.0603 39.4888 17.591 39.4888 15.909C39.4888 14.2463 39.8561 12.7867 40.5908 11.53C41.3254 10.254 42.3308 9.27767 43.6068 8.601C44.8828 7.92433 46.3134 7.586 47.8988 7.586C49.4841 7.586 50.9148 7.92433 52.1908 8.601C53.4668 9.27767 54.4721 10.254 55.2068 11.53C55.9414 12.7867 56.3088 14.2463 56.3088 15.909C56.3088 17.5717 55.9318 19.041 55.1778 20.317C54.4431 21.5737 53.4281 22.5403 52.1328 23.217C50.8568 23.8937 49.4261 24.232 47.8408 24.232ZM47.8408 19.94C48.7881 19.94 49.5904 19.592 50.2478 18.896C50.9244 18.2 51.2628 17.2043 51.2628 15.909C51.2628 14.6137 50.9341 13.618 50.2768 12.922C49.6388 12.226 48.8461 11.878 47.8988 11.878C46.9321 11.878 46.1298 12.226 45.4918 12.922C44.8538 13.5987 44.5348 14.5943 44.5348 15.909C44.5348 17.2043 44.8441 18.2 45.4628 18.896C46.1008 19.592 46.8934 19.94 47.8408 19.94ZM72.1926 3.642V7.615H63.8986V11.907H70.1046V15.764H63.8986V24H58.9396V3.642H72.1926ZM77.293 6.136C76.423 6.136 75.7076 5.88467 75.147 5.382C74.6056 4.86 74.335 4.222 74.335 3.468C74.335 2.69467 74.6056 2.05667 75.147 1.554C75.7076 1.032 76.423 0.770998 77.293 0.770998C78.1436 0.770998 78.8396 1.032 79.381 1.554C79.9416 2.05667 80.222 2.69467 80.222 3.468C80.222 4.222 79.9416 4.86 79.381 5.382C78.8396 5.88467 78.1436 6.136 77.293 6.136ZM79.758 7.818V24H74.799V7.818H79.758Z" fill="url(#paint0_linear_13_173)"/>
<defs>
<linearGradient id="paint0_linear_13_173" x1="-81.2737" y1="-22.85" x2="100.417" y2="3.34596" gradientUnits="userSpaceOnUse">
<stop offset="0.415734" stop-color="#3387D5"/>
<stop offset="1" stop-color="#7A06C9"/>
</linearGradient>
</defs>
</svg>
